<svg xmlns="http://www.w3.org/2000/svg" xmlns:xlink="http://www.w3.org/1999/xlink" width="2000" zoomAndPan="magnify" viewBox="0 0 1500 1499.999933" height="2000" preserveAspectRatio="xMidYMid meet" version="1.0"><defs><clipPath id="9f7351aac8"><path d="M 150 267 L 1350 267 L 1350 1233 L 150 1233 Z M 150 267 " clip-rule="nonzero"></path></clipPath></defs><g clip-path="url(#9f7351aac8)"><path fill="#ffffff" d="M 338.742188 267.25 C 337.5 267.210938 336.253906 267.238281 335.011719 267.324219 C 333 267.441406 331.011719 267.722656 329.042969 268.160156 C 327.078125 268.601562 325.160156 269.195312 323.289062 269.945312 C 321.417969 270.695312 319.621094 271.589844 317.894531 272.628906 C 316.167969 273.671875 314.535156 274.84375 312.996094 276.144531 C 311.460938 277.449219 310.039062 278.867188 308.730469 280.398438 C 307.421875 281.933594 306.242188 283.558594 305.199219 285.28125 C 304.152344 287.003906 303.25 288.800781 302.496094 290.667969 C 301.738281 292.535156 301.136719 294.453125 300.691406 296.417969 C 300.246094 298.382812 299.957031 300.371094 299.832031 302.382812 C 299.707031 304.394531 299.742188 306.402344 299.941406 308.410156 C 300.140625 310.414062 300.496094 312.390625 301.015625 314.339844 C 301.53125 316.285156 302.203125 318.179688 303.023438 320.019531 C 303.847656 321.859375 304.8125 323.621094 305.917969 325.304688 C 307.027344 326.988281 308.261719 328.574219 309.625 330.058594 C 310.988281 331.542969 312.460938 332.910156 314.042969 334.15625 C 315.625 335.402344 317.296875 336.515625 319.0625 337.492188 C 380.433594 372.871094 427.058594 409.417969 427.058594 409.417969 C 428.023438 410.175781 429.023438 410.882812 430.058594 411.542969 C 431.09375 412.203125 432.160156 412.8125 433.253906 413.367188 C 434.351562 413.921875 435.46875 414.421875 436.613281 414.867188 C 437.757812 415.3125 438.921875 415.699219 440.105469 416.03125 C 441.285156 416.359375 442.480469 416.632812 443.691406 416.847656 C 444.898438 417.058594 446.117188 417.210938 447.339844 417.304688 C 448.566406 417.398438 449.789062 417.433594 451.019531 417.40625 C 452.246094 417.378906 453.46875 417.292969 454.6875 417.144531 C 455.90625 416.996094 457.113281 416.792969 458.3125 416.527344 C 459.511719 416.257812 460.695312 415.933594 461.863281 415.554688 C 463.027344 415.171875 464.171875 414.734375 465.296875 414.238281 C 466.421875 413.742188 467.515625 413.195312 468.585938 412.59375 C 469.65625 411.988281 470.695312 411.335938 471.699219 410.632812 C 472.703125 409.925781 473.671875 409.175781 474.605469 408.375 C 475.535156 407.574219 476.425781 406.730469 477.273438 405.84375 C 478.125 404.957031 478.925781 404.03125 479.683594 403.066406 C 480.441406 402.097656 481.152344 401.097656 481.808594 400.0625 C 482.46875 399.027344 483.074219 397.960938 483.628906 396.867188 C 484.183594 395.769531 484.683594 394.652344 485.128906 393.507812 C 485.574219 392.363281 485.960938 391.199219 486.289062 390.015625 C 486.621094 388.832031 486.890625 387.636719 487.101562 386.429688 C 487.316406 385.21875 487.46875 384.003906 487.5625 382.777344 C 487.652344 381.554688 487.6875 380.328125 487.660156 379.101562 C 487.632812 377.875 487.542969 376.648438 487.394531 375.429688 C 487.25 374.210938 487.039062 373.003906 486.773438 371.804688 C 486.507812 370.605469 486.183594 369.425781 485.800781 368.257812 C 485.417969 367.09375 484.976562 365.945312 484.484375 364.824219 C 483.988281 363.699219 483.4375 362.605469 482.835938 361.535156 C 482.230469 360.464844 481.578125 359.429688 480.871094 358.421875 C 480.167969 357.417969 479.414062 356.449219 478.613281 355.519531 C 477.8125 354.589844 476.96875 353.699219 476.082031 352.851562 C 475.195312 352.003906 474.269531 351.199219 473.300781 350.441406 C 473.300781 350.441406 423.046875 310.867188 356.523438 272.519531 C 353.828125 270.910156 350.976562 269.660156 347.964844 268.765625 C 344.953125 267.875 341.878906 267.367188 338.742188 267.25 Z M 1163.945312 267.25 C 1162.601562 267.203125 1161.257812 267.226562 1159.917969 267.324219 C 1153.941406 267.722656 1148.382812 269.453125 1143.238281 272.519531 C 1076.714844 310.867188 1026.457031 350.441406 1026.457031 350.441406 C 1025.492188 351.199219 1024.5625 352 1023.675781 352.851562 C 1022.785156 353.699219 1021.941406 354.585938 1021.140625 355.519531 C 1020.339844 356.449219 1019.585938 357.417969 1018.882812 358.421875 C 1018.175781 359.425781 1017.519531 360.464844 1016.917969 361.535156 C 1016.3125 362.605469 1015.761719 363.699219 1015.265625 364.824219 C 1014.769531 365.945312 1014.332031 367.09375 1013.949219 368.257812 C 1013.566406 369.425781 1013.238281 370.609375 1012.972656 371.808594 C 1012.707031 373.007812 1012.496094 374.214844 1012.347656 375.433594 C 1012.199219 376.652344 1012.113281 377.875 1012.085938 379.105469 C 1012.058594 380.332031 1012.089844 381.558594 1012.183594 382.78125 C 1012.273438 384.007812 1012.425781 385.226562 1012.640625 386.433594 C 1012.851562 387.644531 1013.121094 388.839844 1013.453125 390.023438 C 1013.78125 391.207031 1014.171875 392.371094 1014.613281 393.515625 C 1015.058594 394.660156 1015.558594 395.78125 1016.113281 396.875 C 1016.667969 397.972656 1017.273438 399.039062 1017.933594 400.074219 C 1018.59375 401.109375 1019.300781 402.113281 1020.058594 403.078125 C 1020.816406 404.042969 1021.621094 404.972656 1022.46875 405.859375 C 1023.320312 406.746094 1024.210938 407.589844 1025.140625 408.390625 C 1026.074219 409.191406 1027.042969 409.941406 1028.046875 410.648438 C 1029.054688 411.351562 1030.089844 412.003906 1031.160156 412.605469 C 1032.230469 413.210938 1033.328125 413.757812 1034.453125 414.253906 C 1035.578125 414.746094 1036.722656 415.1875 1037.890625 415.570312 C 1039.058594 415.949219 1040.238281 416.273438 1041.4375 416.539062 C 1042.636719 416.804688 1043.847656 417.011719 1045.066406 417.160156 C 1046.285156 417.304688 1047.507812 417.390625 1048.738281 417.417969 C 1049.964844 417.445312 1051.191406 417.410156 1052.414062 417.316406 C 1053.640625 417.222656 1054.859375 417.070312 1056.066406 416.855469 C 1057.277344 416.640625 1058.472656 416.371094 1059.65625 416.039062 C 1060.835938 415.707031 1062 415.320312 1063.144531 414.875 C 1064.289062 414.425781 1065.410156 413.925781 1066.503906 413.371094 C 1067.601562 412.816406 1068.664062 412.207031 1069.699219 411.546875 C 1070.734375 410.886719 1071.734375 410.175781 1072.703125 409.417969 C 1072.703125 409.417969 1119.324219 372.871094 1180.699219 337.492188 C 1181.589844 337 1182.457031 336.476562 1183.304688 335.914062 C 1184.148438 335.351562 1184.972656 334.757812 1185.769531 334.128906 C 1186.566406 333.5 1187.339844 332.839844 1188.082031 332.148438 C 1188.828125 331.457031 1189.542969 330.738281 1190.226562 329.988281 C 1190.914062 329.238281 1191.570312 328.464844 1192.191406 327.660156 C 1192.8125 326.859375 1193.402344 326.03125 1193.957031 325.183594 C 1194.515625 324.332031 1195.035156 323.460938 1195.519531 322.566406 C 1196.003906 321.675781 1196.449219 320.765625 1196.863281 319.835938 C 1197.273438 318.90625 1197.644531 317.960938 1197.976562 317.003906 C 1198.3125 316.042969 1198.605469 315.074219 1198.859375 314.089844 C 1199.117188 313.105469 1199.328125 312.113281 1199.503906 311.113281 C 1199.679688 310.113281 1199.8125 309.105469 1199.902344 308.09375 C 1199.996094 307.082031 1200.046875 306.070312 1200.058594 305.054688 C 1200.066406 304.039062 1200.035156 303.023438 1199.960938 302.011719 C 1199.890625 301 1199.777344 299.988281 1199.621094 298.984375 C 1199.46875 297.980469 1199.273438 296.984375 1199.035156 296 C 1198.800781 295.011719 1198.523438 294.035156 1198.210938 293.066406 C 1197.894531 292.101562 1197.542969 291.152344 1197.148438 290.214844 C 1196.757812 289.277344 1196.328125 288.359375 1195.859375 287.457031 C 1195.390625 286.554688 1194.886719 285.671875 1194.351562 284.8125 C 1193.8125 283.953125 1193.238281 283.113281 1192.628906 282.300781 C 1192.023438 281.484375 1191.382812 280.695312 1190.714844 279.933594 C 1190.042969 279.171875 1189.339844 278.4375 1188.609375 277.734375 C 1187.878906 277.027344 1187.121094 276.351562 1186.335938 275.710938 C 1185.550781 275.066406 1184.738281 274.453125 1183.902344 273.875 C 1183.070312 273.300781 1182.210938 272.757812 1181.332031 272.25 C 1180.453125 271.742188 1179.554688 271.269531 1178.636719 270.832031 C 1177.71875 270.398438 1176.785156 270.003906 1175.832031 269.644531 C 1174.882812 269.285156 1173.917969 268.964844 1172.945312 268.683594 C 1171.96875 268.402344 1170.980469 268.164062 1169.984375 267.960938 C 1168.988281 267.761719 1167.988281 267.601562 1166.980469 267.484375 C 1165.96875 267.363281 1164.957031 267.285156 1163.945312 267.25 Z M 749.878906 305.222656 C 720.15625 305.222656 690.4375 315.707031 666.90625 336.6875 C 606.808594 390.230469 511.75 490.867188 416.59375 655.703125 C 321.4375 820.542969 281.863281 953.148438 265.5 1031.9375 C 252.695312 1093.679688 288.589844 1155.949219 348.476562 1175.714844 C 424.882812 1200.949219 559.53125 1232.933594 749.878906 1232.933594 C 940.226562 1232.933594 1074.875 1200.949219 1151.285156 1175.714844 C 1211.1875 1155.960938 1247.050781 1093.675781 1234.257812 1031.9375 C 1217.898438 953.148438 1178.359375 820.542969 1083.164062 655.703125 C 987.972656 490.871094 892.9375 390.257812 832.855469 336.6875 C 809.324219 315.707031 779.605469 305.222656 749.878906 305.222656 Z M 749.878906 379.710938 C 761.605469 379.710938 773.289062 384.046875 782.953125 392.660156 C 832.40625 436.753906 910.625 518.714844 992.507812 650.65625 C 924.941406 621.296875 841.058594 604.707031 749.878906 604.707031 C 658.675781 604.707031 574.753906 621.28125 507.179688 650.65625 C 589.03125 518.707031 667.292969 436.710938 716.734375 392.660156 C 726.394531 384.046875 738.152344 379.710938 749.878906 379.710938 Z M 1312.769531 492.171875 C 1309.371094 492.132812 1306.03125 492.546875 1302.746094 493.414062 L 1152.894531 530.878906 C 1151.703125 531.175781 1150.53125 531.53125 1149.375 531.941406 C 1148.21875 532.355469 1147.085938 532.824219 1145.976562 533.347656 C 1144.863281 533.871094 1143.78125 534.445312 1142.730469 535.078125 C 1141.675781 535.707031 1140.65625 536.386719 1139.667969 537.117188 C 1138.683594 537.847656 1137.734375 538.625 1136.824219 539.449219 C 1135.914062 540.273438 1135.046875 541.136719 1134.222656 542.046875 C 1133.394531 542.957031 1132.617188 543.902344 1131.886719 544.886719 C 1131.152344 545.875 1130.46875 546.890625 1129.839844 547.945312 C 1129.207031 548.996094 1128.628906 550.078125 1128.101562 551.1875 C 1127.574219 552.296875 1127.105469 553.429688 1126.691406 554.582031 C 1126.277344 555.738281 1125.917969 556.910156 1125.621094 558.101562 C 1125.320312 559.292969 1125.082031 560.496094 1124.898438 561.707031 C 1124.71875 562.921875 1124.597656 564.144531 1124.535156 565.367188 C 1124.472656 566.59375 1124.472656 567.820312 1124.53125 569.046875 C 1124.589844 570.273438 1124.710938 571.492188 1124.890625 572.707031 C 1125.066406 573.921875 1125.304688 575.125 1125.601562 576.316406 C 1125.898438 577.507812 1126.253906 578.679688 1126.667969 579.835938 C 1127.078125 580.992188 1127.546875 582.125 1128.070312 583.234375 C 1128.59375 584.347656 1129.171875 585.425781 1129.800781 586.480469 C 1130.433594 587.535156 1131.113281 588.554688 1131.84375 589.542969 C 1132.574219 590.527344 1133.351562 591.476562 1134.175781 592.386719 C 1134.996094 593.296875 1135.863281 594.164062 1136.773438 594.988281 C 1137.679688 595.816406 1138.628906 596.59375 1139.613281 597.324219 C 1140.597656 598.058594 1141.617188 598.738281 1142.667969 599.371094 C 1143.722656 600.003906 1144.800781 600.582031 1145.910156 601.109375 C 1147.019531 601.636719 1148.152344 602.105469 1149.308594 602.519531 C 1150.464844 602.933594 1151.636719 603.292969 1152.828125 603.589844 C 1154.019531 603.890625 1155.21875 604.128906 1156.433594 604.3125 C 1157.648438 604.492188 1158.867188 604.613281 1160.09375 604.675781 C 1161.320312 604.738281 1162.546875 604.738281 1163.773438 604.679688 C 1165 604.621094 1166.21875 604.5 1167.433594 604.320312 C 1168.648438 604.144531 1169.851562 603.90625 1171.039062 603.609375 L 1320.890625 566.144531 C 1321.996094 565.890625 1323.089844 565.585938 1324.167969 565.230469 C 1325.246094 564.875 1326.308594 564.472656 1327.351562 564.023438 C 1328.390625 563.574219 1329.410156 563.074219 1330.40625 562.53125 C 1331.40625 561.988281 1332.375 561.402344 1333.320312 560.769531 C 1334.261719 560.136719 1335.175781 559.464844 1336.058594 558.75 C 1336.9375 558.035156 1337.789062 557.28125 1338.601562 556.492188 C 1339.414062 555.699219 1340.191406 554.871094 1340.929688 554.007812 C 1341.667969 553.148438 1342.367188 552.253906 1343.023438 551.328125 C 1343.679688 550.402344 1344.292969 549.449219 1344.867188 548.464844 C 1345.4375 547.484375 1345.960938 546.480469 1346.441406 545.449219 C 1346.917969 544.421875 1347.351562 543.371094 1347.734375 542.304688 C 1348.117188 541.234375 1348.453125 540.152344 1348.738281 539.050781 C 1349.023438 537.953125 1349.257812 536.84375 1349.441406 535.722656 C 1349.628906 534.601562 1349.761719 533.476562 1349.84375 532.34375 C 1349.925781 531.210938 1349.957031 530.078125 1349.933594 528.941406 C 1349.914062 527.808594 1349.839844 526.675781 1349.71875 525.546875 C 1349.59375 524.417969 1349.417969 523.296875 1349.191406 522.183594 C 1348.96875 521.074219 1348.691406 519.972656 1348.367188 518.886719 C 1348.039062 517.796875 1347.664062 516.726562 1347.242188 515.671875 C 1346.820312 514.621094 1346.347656 513.585938 1345.832031 512.578125 C 1345.316406 511.566406 1344.753906 510.582031 1344.144531 509.621094 C 1343.539062 508.660156 1342.890625 507.730469 1342.199219 506.828125 C 1341.507812 505.929688 1340.777344 505.0625 1340.007812 504.226562 C 1339.238281 503.394531 1338.433594 502.59375 1337.589844 501.835938 C 1336.746094 501.074219 1335.871094 500.351562 1334.964844 499.671875 C 1334.054688 498.988281 1333.117188 498.351562 1332.152344 497.753906 C 1331.1875 497.15625 1330.195312 496.605469 1329.179688 496.101562 C 1328.164062 495.59375 1327.125 495.132812 1326.066406 494.722656 C 1325.007812 494.3125 1323.933594 493.949219 1322.84375 493.632812 C 1321.753906 493.320312 1320.648438 493.054688 1319.535156 492.839844 C 1318.417969 492.628906 1317.296875 492.464844 1316.167969 492.351562 C 1315.039062 492.242188 1313.90625 492.179688 1312.769531 492.171875 Z M 185.894531 492.246094 C 184.773438 492.292969 183.660156 492.386719 182.550781 492.535156 C 181.4375 492.683594 180.335938 492.878906 179.242188 493.125 C 178.152344 493.371094 177.070312 493.664062 176.003906 494.007812 C 174.9375 494.347656 173.890625 494.738281 172.859375 495.175781 C 171.828125 495.613281 170.816406 496.09375 169.828125 496.621094 C 168.839844 497.148438 167.878906 497.71875 166.941406 498.332031 C 166.003906 498.945312 165.09375 499.601562 164.214844 500.296875 C 163.339844 500.992188 162.492188 501.722656 161.679688 502.496094 C 160.867188 503.265625 160.089844 504.070312 159.351562 504.910156 C 158.609375 505.75 157.90625 506.625 157.246094 507.527344 C 156.582031 508.429688 155.964844 509.363281 155.382812 510.320312 C 154.804688 511.28125 154.269531 512.261719 153.78125 513.269531 C 153.289062 514.277344 152.84375 515.304688 152.445312 516.351562 C 152.046875 517.398438 151.699219 518.460938 151.394531 519.539062 C 151.089844 520.617188 150.835938 521.707031 150.632812 522.808594 C 150.425781 523.910156 150.269531 525.015625 150.164062 526.132812 C 150.058594 527.246094 150.003906 528.367188 149.996094 529.484375 C 149.992188 530.605469 150.035156 531.722656 150.128906 532.839844 C 150.226562 533.957031 150.371094 535.066406 150.5625 536.167969 C 150.757812 537.273438 151 538.363281 151.292969 539.445312 C 151.585938 540.527344 151.925781 541.59375 152.3125 542.644531 C 152.699219 543.695312 153.132812 544.726562 153.613281 545.738281 C 154.09375 546.75 154.617188 547.738281 155.1875 548.703125 C 155.757812 549.667969 156.367188 550.605469 157.019531 551.515625 C 157.671875 552.425781 158.367188 553.304688 159.097656 554.15625 C 159.828125 555.003906 160.597656 555.816406 161.402344 556.59375 C 162.207031 557.375 163.042969 558.117188 163.917969 558.820312 C 164.789062 559.523438 165.6875 560.1875 166.621094 560.8125 C 167.550781 561.433594 168.507812 562.015625 169.488281 562.550781 C 170.472656 563.089844 171.476562 563.582031 172.503906 564.027344 C 173.53125 564.476562 174.578125 564.875 175.640625 565.230469 C 176.703125 565.582031 177.777344 565.886719 178.867188 566.144531 L 328.71875 603.609375 C 329.910156 603.90625 331.113281 604.144531 332.328125 604.320312 C 333.542969 604.5 334.761719 604.621094 335.988281 604.679688 C 337.214844 604.738281 338.441406 604.738281 339.667969 604.675781 C 340.890625 604.613281 342.113281 604.492188 343.328125 604.3125 C 344.539062 604.128906 345.742188 603.890625 346.933594 603.589844 C 348.125 603.292969 349.296875 602.933594 350.453125 602.519531 C 351.605469 602.105469 352.738281 601.636719 353.847656 601.109375 C 354.957031 600.582031 356.039062 600.003906 357.089844 599.371094 C 358.144531 598.738281 359.160156 598.058594 360.148438 597.324219 C 361.132812 596.59375 362.078125 595.816406 362.988281 594.988281 C 363.898438 594.164062 364.761719 593.296875 365.585938 592.386719 C 366.410156 591.476562 367.1875 590.527344 367.917969 589.542969 C 368.648438 588.554688 369.328125 587.535156 369.957031 586.480469 C 370.585938 585.429688 371.164062 584.347656 371.6875 583.234375 C 372.210938 582.125 372.679688 580.992188 373.09375 579.835938 C 373.503906 578.679688 373.859375 577.507812 374.15625 576.316406 C 374.453125 575.125 374.691406 573.921875 374.871094 572.707031 C 375.050781 571.492188 375.167969 570.273438 375.226562 569.046875 C 375.289062 567.820312 375.285156 566.59375 375.226562 565.367188 C 375.164062 564.144531 375.042969 562.921875 374.859375 561.707031 C 374.679688 560.496094 374.441406 559.292969 374.140625 558.101562 C 373.839844 556.910156 373.484375 555.738281 373.070312 554.582031 C 372.65625 553.429688 372.183594 552.296875 371.660156 551.1875 C 371.132812 550.078125 370.554688 548.996094 369.921875 547.945312 C 369.289062 546.890625 368.609375 545.875 367.875 544.886719 C 367.144531 543.902344 366.363281 542.957031 365.539062 542.046875 C 364.714844 541.136719 363.847656 540.273438 362.9375 539.449219 C 362.027344 538.625 361.078125 537.847656 360.089844 537.117188 C 359.105469 536.386719 358.085938 535.707031 357.03125 535.078125 C 355.976562 534.445312 354.894531 533.871094 353.785156 533.347656 C 352.675781 532.824219 351.542969 532.355469 350.386719 531.941406 C 349.230469 531.53125 348.054688 531.175781 346.863281 530.878906 L 197.015625 493.414062 C 193.367188 492.464844 189.660156 492.074219 185.894531 492.246094 Z M 749.878906 679.628906 C 777.976562 679.628906 794.28125 688.816406 806.148438 702.167969 C 818.011719 715.515625 824.804688 734.785156 824.804688 754.554688 C 824.804688 774.328125 818.011719 793.597656 806.148438 806.945312 C 794.28125 820.292969 777.976562 829.480469 749.878906 829.480469 C 721.785156 829.480469 705.476562 820.292969 693.613281 806.945312 C 681.746094 793.597656 674.953125 774.328125 674.953125 754.554688 C 674.953125 734.785156 681.746094 715.515625 693.613281 702.167969 C 705.476562 688.816406 721.785156 679.628906 749.878906 679.628906 Z M 611.515625 695.582031 C 604.007812 714.480469 600.03125 734.523438 600.03125 754.554688 C 600.03125 790.976562 611.96875 827.902344 637.566406 856.699219 C 663.164062 885.496094 703.050781 904.40625 749.878906 904.40625 C 796.707031 904.40625 836.597656 885.496094 862.195312 856.699219 C 887.792969 827.902344 899.730469 790.976562 899.730469 754.554688 C 899.730469 734.523438 895.75 714.480469 888.242188 695.582031 C 925.09375 704.320312 958.308594 716.03125 985.339844 730.191406 C 1043.109375 760.453125 1069.996094 797.082031 1069.996094 829.480469 C 1069.996094 861.878906 1043.109375 898.507812 985.339844 928.769531 C 927.566406 959.035156 843.320312 979.332031 749.878906 979.332031 C 656.441406 979.332031 572.191406 959.035156 514.421875 928.769531 C 456.652344 898.507812 429.765625 861.878906 429.765625 829.480469 C 429.765625 797.082031 456.652344 760.453125 514.421875 730.191406 C 541.453125 716.03125 574.667969 704.320312 611.515625 695.582031 Z M 379.425781 908.941406 C 401.695312 943.703125 437.25 972.914062 479.667969 995.136719 C 551.3125 1032.667969 645.835938 1054.253906 749.878906 1054.253906 C 853.925781 1054.253906 948.445312 1032.667969 1020.09375 995.136719 C 1062.507812 972.914062 1098.066406 943.703125 1120.335938 908.941406 C 1141.128906 965.527344 1153.804688 1012.777344 1160.945312 1047.160156 C 1166.207031 1072.558594 1152.414062 1096.40625 1127.796875 1104.523438 C 1058.328125 1127.464844 931.835938 1158.007812 749.878906 1158.007812 C 567.925781 1158.007812 441.433594 1127.464844 371.960938 1104.523438 C 347.40625 1096.417969 333.566406 1072.480469 338.816406 1047.160156 C 345.957031 1012.777344 358.625 965.527344 379.425781 908.941406 Z M 379.425781 908.941406 " fill-opacity="1" fill-rule="nonzero"></path><path fill="#ffffff" d="M 338.742188 267.25 C 337.5 267.210938 336.253906 267.238281 335.011719 267.324219 C 333 267.441406 331.011719 267.722656 329.042969 268.160156 C 327.078125 268.601562 325.160156 269.195312 323.289062 269.945312 C 321.417969 270.695312 319.621094 271.589844 317.894531 272.628906 C 316.167969 273.671875 314.535156 274.84375 312.996094 276.144531 C 311.460938 277.449219 310.039062 278.867188 308.730469 280.398438 C 307.421875 281.933594 306.242188 283.558594 305.199219 285.28125 C 304.152344 287.003906 303.25 288.800781 302.496094 290.667969 C 301.738281 292.535156 301.136719 294.453125 300.691406 296.417969 C 300.246094 298.382812 299.957031 300.371094 299.832031 302.382812 C 299.707031 304.394531 299.742188 306.402344 299.941406 308.410156 C 300.140625 310.414062 300.496094 312.390625 301.015625 314.339844 C 301.53125 316.285156 302.203125 318.179688 303.023438 320.019531 C 303.847656 321.859375 304.8125 323.621094 305.917969 325.304688 C 307.027344 326.988281 308.261719 328.574219 309.625 330.058594 C 310.988281 331.542969 312.460938 332.910156 314.042969 334.15625 C 315.625 335.402344 317.296875 336.515625 319.0625 337.492188 C 380.433594 372.871094 427.058594 409.417969 427.058594 409.417969 C 428.023438 410.175781 429.023438 410.882812 430.058594 411.542969 C 431.09375 412.203125 432.160156 412.8125 433.253906 413.367188 C 434.351562 413.921875 435.46875 414.421875 436.613281 414.867188 C 437.757812 415.3125 438.921875 415.699219 440.105469 416.03125 C 441.285156 416.359375 442.480469 416.632812 443.691406 416.847656 C 444.898438 417.058594 446.117188 417.210938 447.339844 417.304688 C 448.566406 417.398438 449.789062 417.433594 451.019531 417.40625 C 452.246094 417.378906 453.46875 417.292969 454.6875 417.144531 C 455.90625 416.996094 457.113281 416.792969 458.3125 416.527344 C 459.511719 416.257812 460.695312 415.933594 461.863281 415.554688 C 463.027344 415.171875 464.171875 414.734375 465.296875 414.238281 C 466.421875 413.742188 467.515625 413.195312 468.585938 412.59375 C 469.65625 411.988281 470.695312 411.335938 471.699219 410.632812 C 472.703125 409.925781 473.671875 409.175781 474.605469 408.375 C 475.535156 407.574219 476.425781 406.730469 477.273438 405.84375 C 478.125 404.957031 478.925781 404.03125 479.683594 403.066406 C 480.441406 402.097656 481.152344 401.097656 481.808594 400.0625 C 482.46875 399.027344 483.074219 397.960938 483.628906 396.867188 C 484.183594 395.769531 484.683594 394.652344 485.128906 393.507812 C 485.574219 392.363281 485.960938 391.199219 486.289062 390.015625 C 486.621094 388.832031 486.890625 387.636719 487.101562 386.429688 C 487.316406 385.21875 487.46875 384.003906 487.5625 382.777344 C 487.652344 381.554688 487.6875 380.328125 487.660156 379.101562 C 487.632812 377.875 487.542969 376.648438 487.394531 375.429688 C 487.25 374.210938 487.039062 373.003906 486.773438 371.804688 C 486.507812 370.605469 486.183594 369.425781 485.800781 368.257812 C 485.417969 367.09375 484.976562 365.945312 484.484375 364.824219 C 483.988281 363.699219 483.4375 362.605469 482.835938 361.535156 C 482.230469 360.464844 481.578125 359.429688 480.871094 358.421875 C 480.167969 357.417969 479.414062 356.449219 478.613281 355.519531 C 477.8125 354.589844 476.96875 353.699219 476.082031 352.851562 C 475.195312 352.003906 474.269531 351.199219 473.300781 350.441406 C 473.300781 350.441406 423.046875 310.867188 356.523438 272.519531 C 353.828125 270.910156 350.976562 269.660156 347.964844 268.765625 C 344.953125 267.875 341.878906 267.367188 338.742188 267.25 Z M 1163.945312 267.25 C 1162.601562 267.203125 1161.257812 267.226562 1159.917969 267.324219 C 1153.941406 267.722656 1148.382812 269.453125 1143.238281 272.519531 C 1076.714844 310.867188 1026.457031 350.441406 1026.457031 350.441406 C 1025.492188 351.199219 1024.5625 352 1023.675781 352.851562 C 1022.785156 353.699219 1021.941406 354.585938 1021.140625 355.519531 C 1020.339844 356.449219 1019.585938 357.417969 1018.882812 358.421875 C 1018.175781 359.425781 1017.519531 360.464844 1016.917969 361.535156 C 1016.3125 362.605469 1015.761719 363.699219 1015.265625 364.824219 C 1014.769531 365.945312 1014.332031 367.09375 1013.949219 368.257812 C 1013.566406 369.425781 1013.238281 370.609375 1012.972656 371.808594 C 1012.707031 373.007812 1012.496094 374.214844 1012.347656 375.433594 C 1012.199219 376.652344 1012.113281 377.875 1012.085938 379.105469 C 1012.058594 380.332031 1012.089844 381.558594 1012.183594 382.78125 C 1012.273438 384.007812 1012.425781 385.226562 1012.640625 386.433594 C 1012.851562 387.644531 1013.121094 388.839844 1013.453125 390.023438 C 1013.78125 391.207031 1014.171875 392.371094 1014.613281 393.515625 C 1015.058594 394.660156 1015.558594 395.78125 1016.113281 396.875 C 1016.667969 397.972656 1017.273438 399.039062 1017.933594 400.074219 C 1018.59375 401.109375 1019.300781 402.113281 1020.058594 403.078125 C 1020.816406 404.042969 1021.621094 404.972656 1022.46875 405.859375 C 1023.320312 406.746094 1024.210938 407.589844 1025.140625 408.390625 C 1026.074219 409.191406 1027.042969 409.941406 1028.046875 410.648438 C 1029.054688 411.351562 1030.089844 412.003906 1031.160156 412.605469 C 1032.230469 413.210938 1033.328125 413.757812 1034.453125 414.253906 C 1035.578125 414.746094 1036.722656 415.1875 1037.890625 415.570312 C 1039.058594 415.949219 1040.238281 416.273438 1041.4375 416.539062 C 1042.636719 416.804688 1043.847656 417.011719 1045.066406 417.160156 C 1046.285156 417.304688 1047.507812 417.390625 1048.738281 417.417969 C 1049.964844 417.445312 1051.191406 417.410156 1052.414062 417.316406 C 1053.640625 417.222656 1054.859375 417.070312 1056.066406 416.855469 C 1057.277344 416.640625 1058.472656 416.371094 1059.65625 416.039062 C 1060.835938 415.707031 1062 415.320312 1063.144531 414.875 C 1064.289062 414.425781 1065.410156 413.925781 1066.503906 413.371094 C 1067.601562 412.816406 1068.664062 412.207031 1069.699219 411.546875 C 1070.734375 410.886719 1071.734375 410.175781 1072.703125 409.417969 C 1072.703125 409.417969 1119.324219 372.871094 1180.699219 337.492188 C 1181.589844 337 1182.457031 336.476562 1183.304688 335.914062 C 1184.148438 335.351562 1184.972656 334.757812 1185.769531 334.128906 C 1186.566406 333.5 1187.339844 332.839844 1188.082031 332.148438 C 1188.828125 331.457031 1189.542969 330.738281 1190.226562 329.988281 C 1190.914062 329.238281 1191.570312 328.464844 1192.191406 327.660156 C 1192.8125 326.859375 1193.402344 326.03125 1193.957031 325.183594 C 1194.515625 324.332031 1195.035156 323.460938 1195.519531 322.566406 C 1196.003906 321.675781 1196.449219 320.765625 1196.863281 319.835938 C 1197.273438 318.90625 1197.644531 317.960938 1197.976562 317.003906 C 1198.3125 316.042969 1198.605469 315.074219 1198.859375 314.089844 C 1199.117188 313.105469 1199.328125 312.113281 1199.503906 311.113281 C 1199.679688 310.113281 1199.8125 309.105469 1199.902344 308.09375 C 1199.996094 307.082031 1200.046875 306.070312 1200.058594 305.054688 C 1200.066406 304.039062 1200.035156 303.023438 1199.960938 302.011719 C 1199.890625 301 1199.777344 299.988281 1199.621094 298.984375 C 1199.46875 297.980469 1199.273438 296.984375 1199.035156 296 C 1198.800781 295.011719 1198.523438 294.035156 1198.210938 293.066406 C 1197.894531 292.101562 1197.542969 291.152344 1197.148438 290.214844 C 1196.757812 289.277344 1196.328125 288.359375 1195.859375 287.457031 C 1195.390625 286.554688 1194.886719 285.671875 1194.351562 284.8125 C 1193.8125 283.953125 1193.238281 283.113281 1192.628906 282.300781 C 1192.023438 281.484375 1191.382812 280.695312 1190.714844 279.933594 C 1190.042969 279.171875 1189.339844 278.4375 1188.609375 277.734375 C 1187.878906 277.027344 1187.121094 276.351562 1186.335938 275.710938 C 1185.550781 275.066406 1184.738281 274.453125 1183.902344 273.875 C 1183.070312 273.300781 1182.210938 272.757812 1181.332031 272.25 C 1180.453125 271.742188 1179.554688 271.269531 1178.636719 270.832031 C 1177.71875 270.398438 1176.785156 270.003906 1175.832031 269.644531 C 1174.882812 269.285156 1173.917969 268.964844 1172.945312 268.683594 C 1171.96875 268.402344 1170.980469 268.164062 1169.984375 267.960938 C 1168.988281 267.761719 1167.988281 267.601562 1166.980469 267.484375 C 1165.96875 267.363281 1164.957031 267.285156 1163.945312 267.25 Z M 749.878906 305.222656 C 720.15625 305.222656 690.4375 315.707031 666.90625 336.6875 C 606.808594 390.230469 511.75 490.867188 416.59375 655.703125 C 321.4375 820.542969 281.863281 953.148438 265.5 1031.9375 C 252.695312 1093.679688 288.589844 1155.949219 348.476562 1175.714844 C 424.882812 1200.949219 559.53125 1232.933594 749.878906 1232.933594 C 940.226562 1232.933594 1074.875 1200.949219 1151.285156 1175.714844 C 1211.1875 1155.960938 1247.050781 1093.675781 1234.257812 1031.9375 C 1217.898438 953.148438 1178.359375 820.542969 1083.164062 655.703125 C 987.972656 490.871094 892.9375 390.257812 832.855469 336.6875 C 809.324219 315.707031 779.605469 305.222656 749.878906 305.222656 Z M 749.878906 379.710938 C 761.605469 379.710938 773.289062 384.046875 782.953125 392.660156 C 832.40625 436.753906 910.625 518.714844 992.507812 650.65625 C 924.941406 621.296875 841.058594 604.707031 749.878906 604.707031 C 658.675781 604.707031 574.753906 621.28125 507.179688 650.65625 C 589.03125 518.707031 667.292969 436.710938 716.734375 392.660156 C 726.394531 384.046875 738.152344 379.710938 749.878906 379.710938 Z M 1312.769531 492.171875 C 1309.371094 492.132812 1306.03125 492.546875 1302.746094 493.414062 L 1152.894531 530.878906 C 1151.703125 531.175781 1150.53125 531.53125 1149.375 531.941406 C 1148.21875 532.355469 1147.085938 532.824219 1145.976562 533.347656 C 1144.863281 533.871094 1143.78125 534.445312 1142.730469 535.078125 C 1141.675781 535.707031 1140.65625 536.386719 1139.667969 537.117188 C 1138.683594 537.847656 1137.734375 538.625 1136.824219 539.449219 C 1135.914062 540.273438 1135.046875 541.136719 1134.222656 542.046875 C 1133.394531 542.957031 1132.617188 543.902344 1131.886719 544.886719 C 1131.152344 545.875 1130.46875 546.890625 1129.839844 547.945312 C 1129.207031 548.996094 1128.628906 550.078125 1128.101562 551.1875 C 1127.574219 552.296875 1127.105469 553.429688 1126.691406 554.582031 C 1126.277344 555.738281 1125.917969 556.910156 1125.621094 558.101562 C 1125.320312 559.292969 1125.082031 560.496094 1124.898438 561.707031 C 1124.71875 562.921875 1124.597656 564.144531 1124.535156 565.367188 C 1124.472656 566.59375 1124.472656 567.820312 1124.53125 569.046875 C 1124.589844 570.273438 1124.710938 571.492188 1124.890625 572.707031 C 1125.066406 573.921875 1125.304688 575.125 1125.601562 576.316406 C 1125.898438 577.507812 1126.253906 578.679688 1126.667969 579.835938 C 1127.078125 580.992188 1127.546875 582.125 1128.070312 583.234375 C 1128.59375 584.347656 1129.171875 585.425781 1129.800781 586.480469 C 1130.433594 587.535156 1131.113281 588.554688 1131.84375 589.542969 C 1132.574219 590.527344 1133.351562 591.476562 1134.175781 592.386719 C 1134.996094 593.296875 1135.863281 594.164062 1136.773438 594.988281 C 1137.679688 595.816406 1138.628906 596.59375 1139.613281 597.324219 C 1140.597656 598.058594 1141.617188 598.738281 1142.667969 599.371094 C 1143.722656 600.003906 1144.800781 600.582031 1145.910156 601.109375 C 1147.019531 601.636719 1148.152344 602.105469 1149.308594 602.519531 C 1150.464844 602.933594 1151.636719 603.292969 1152.828125 603.589844 C 1154.019531 603.890625 1155.21875 604.128906 1156.433594 604.3125 C 1157.648438 604.492188 1158.867188 604.613281 1160.09375 604.675781 C 1161.320312 604.738281 1162.546875 604.738281 1163.773438 604.679688 C 1165 604.621094 1166.21875 604.5 1167.433594 604.320312 C 1168.648438 604.144531 1169.851562 603.90625 1171.039062 603.609375 L 1320.890625 566.144531 C 1321.996094 565.890625 1323.089844 565.585938 1324.167969 565.230469 C 1325.246094 564.875 1326.308594 564.472656 1327.351562 564.023438 C 1328.390625 563.574219 1329.410156 563.074219 1330.40625 562.53125 C 1331.40625 561.988281 1332.375 561.402344 1333.320312 560.769531 C 1334.261719 560.136719 1335.175781 559.464844 1336.058594 558.75 C 1336.9375 558.035156 1337.789062 557.28125 1338.601562 556.492188 C 1339.414062 555.699219 1340.191406 554.871094 1340.929688 554.007812 C 1341.667969 553.148438 1342.367188 552.253906 1343.023438 551.328125 C 1343.679688 550.402344 1344.292969 549.449219 1344.867188 548.464844 C 1345.4375 547.484375 1345.960938 546.480469 1346.441406 545.449219 C 1346.917969 544.421875 1347.351562 543.371094 1347.734375 542.304688 C 1348.117188 541.234375 1348.453125 540.152344 1348.738281 539.050781 C 1349.023438 537.953125 1349.257812 536.84375 1349.441406 535.722656 C 1349.628906 534.601562 1349.761719 533.476562 1349.84375 532.34375 C 1349.925781 531.210938 1349.957031 530.078125 1349.933594 528.941406 C 1349.914062 527.808594 1349.839844 526.675781 1349.71875 525.546875 C 1349.59375 524.417969 1349.417969 523.296875 1349.191406 522.183594 C 1348.96875 521.074219 1348.691406 519.972656 1348.367188 518.886719 C 1348.039062 517.796875 1347.664062 516.726562 1347.242188 515.671875 C 1346.820312 514.621094 1346.347656 513.585938 1345.832031 512.578125 C 1345.316406 511.566406 1344.753906 510.582031 1344.144531 509.621094 C 1343.539062 508.660156 1342.890625 507.730469 1342.199219 506.828125 C 1341.507812 505.929688 1340.777344 505.0625 1340.007812 504.226562 C 1339.238281 503.394531 1338.433594 502.59375 1337.589844 501.835938 C 1336.746094 501.074219 1335.871094 500.351562 1334.964844 499.671875 C 1334.054688 498.988281 1333.117188 498.351562 1332.152344 497.753906 C 1331.1875 497.15625 1330.195312 496.605469 1329.179688 496.101562 C 1328.164062 495.59375 1327.125 495.132812 1326.066406 494.722656 C 1325.007812 494.3125 1323.933594 493.949219 1322.84375 493.632812 C 1321.753906 493.320312 1320.648438 493.054688 1319.535156 492.839844 C 1318.417969 492.628906 1317.296875 492.464844 1316.167969 492.351562 C 1315.039062 492.242188 1313.90625 492.179688 1312.769531 492.171875 Z M 185.894531 492.246094 C 184.773438 492.292969 183.660156 492.386719 182.550781 492.535156 C 181.4375 492.683594 180.335938 492.878906 179.242188 493.125 C 178.152344 493.371094 177.070312 493.664062 176.003906 494.007812 C 174.9375 494.347656 173.890625 494.738281 172.859375 495.175781 C 171.828125 495.613281 170.816406 496.09375 169.828125 496.621094 C 168.839844 497.148438 167.878906 497.71875 166.941406 498.332031 C 166.003906 498.945312 165.09375 499.601562 164.214844 500.296875 C 163.339844 500.992188 162.492188 501.722656 161.679688 502.496094 C 160.867188 503.265625 160.089844 504.070312 159.351562 504.910156 C 158.609375 505.75 157.90625 506.625 157.246094 507.527344 C 156.582031 508.429688 155.964844 509.363281 155.382812 510.320312 C 154.804688 511.28125 154.269531 512.261719 153.78125 513.269531 C 153.289062 514.277344 152.84375 515.304688 152.445312 516.351562 C 152.046875 517.398438 151.699219 518.460938 151.394531 519.539062 C 151.089844 520.617188 150.835938 521.707031 150.632812 522.808594 C 150.425781 523.910156 150.269531 525.015625 150.164062 526.132812 C 150.058594 527.246094 150.003906 528.367188 149.996094 529.484375 C 149.992188 530.605469 150.035156 531.722656 150.128906 532.839844 C 150.226562 533.957031 150.371094 535.066406 150.5625 536.167969 C 150.757812 537.273438 151 538.363281 151.292969 539.445312 C 151.585938 540.527344 151.925781 541.59375 152.3125 542.644531 C 152.699219 543.695312 153.132812 544.726562 153.613281 545.738281 C 154.09375 546.75 154.617188 547.738281 155.1875 548.703125 C 155.757812 549.667969 156.367188 550.605469 157.019531 551.515625 C 157.671875 552.425781 158.367188 553.304688 159.097656 554.15625 C 159.828125 555.003906 160.597656 555.816406 161.402344 556.59375 C 162.207031 557.375 163.042969 558.117188 163.917969 558.820312 C 164.789062 559.523438 165.6875 560.1875 166.621094 560.8125 C 167.550781 561.433594 168.507812 562.015625 169.488281 562.550781 C 170.472656 563.089844 171.476562 563.582031 172.503906 564.027344 C 173.53125 564.476562 174.578125 564.875 175.640625 565.230469 C 176.703125 565.582031 177.777344 565.886719 178.867188 566.144531 L 328.71875 603.609375 C 329.910156 603.90625 331.113281 604.144531 332.328125 604.320312 C 333.542969 604.5 334.761719 604.621094 335.988281 604.679688 C 337.214844 604.738281 338.441406 604.738281 339.667969 604.675781 C 340.890625 604.613281 342.113281 604.492188 343.328125 604.3125 C 344.539062 604.128906 345.742188 603.890625 346.933594 603.589844 C 348.125 603.292969 349.296875 602.933594 350.453125 602.519531 C 351.605469 602.105469 352.738281 601.636719 353.847656 601.109375 C 354.957031 600.582031 356.039062 600.003906 357.089844 599.371094 C 358.144531 598.738281 359.160156 598.058594 360.148438 597.324219 C 361.132812 596.59375 362.078125 595.816406 362.988281 594.988281 C 363.898438 594.164062 364.761719 593.296875 365.585938 592.386719 C 366.410156 591.476562 367.1875 590.527344 367.917969 589.542969 C 368.648438 588.554688 369.328125 587.535156 369.957031 586.480469 C 370.585938 585.429688 371.164062 584.347656 371.6875 583.234375 C 372.210938 582.125 372.679688 580.992188 373.09375 579.835938 C 373.503906 578.679688 373.859375 577.507812 374.15625 576.316406 C 374.453125 575.125 374.691406 573.921875 374.871094 572.707031 C 375.050781 571.492188 375.167969 570.273438 375.226562 569.046875 C 375.289062 567.820312 375.285156 566.59375 375.226562 565.367188 C 375.164062 564.144531 375.042969 562.921875 374.859375 561.707031 C 374.679688 560.496094 374.441406 559.292969 374.140625 558.101562 C 373.839844 556.910156 373.484375 555.738281 373.070312 554.582031 C 372.65625 553.429688 372.183594 552.296875 371.660156 551.1875 C 371.132812 550.078125 370.554688 548.996094 369.921875 547.945312 C 369.289062 546.890625 368.609375 545.875 367.875 544.886719 C 367.144531 543.902344 366.363281 542.957031 365.539062 542.046875 C 364.714844 541.136719 363.847656 540.273438 362.9375 539.449219 C 362.027344 538.625 361.078125 537.847656 360.089844 537.117188 C 359.105469 536.386719 358.085938 535.707031 357.03125 535.078125 C 355.976562 534.445312 354.894531 533.871094 353.785156 533.347656 C 352.675781 532.824219 351.542969 532.355469 350.386719 531.941406 C 349.230469 531.53125 348.054688 531.175781 346.863281 530.878906 L 197.015625 493.414062 C 193.367188 492.464844 189.660156 492.074219 185.894531 492.246094 Z M 749.878906 679.628906 C 777.976562 679.628906 794.28125 688.816406 806.148438 702.167969 C 818.011719 715.515625 824.804688 734.785156 824.804688 754.554688 C 824.804688 774.328125 818.011719 793.597656 806.148438 806.945312 C 794.28125 820.292969 777.976562 829.480469 749.878906 829.480469 C 721.785156 829.480469 705.476562 820.292969 693.613281 806.945312 C 681.746094 793.597656 674.953125 774.328125 674.953125 754.554688 C 674.953125 734.785156 681.746094 715.515625 693.613281 702.167969 C 705.476562 688.816406 721.785156 679.628906 749.878906 679.628906 Z M 611.515625 695.582031 C 604.007812 714.480469 600.03125 734.523438 600.03125 754.554688 C 600.03125 790.976562 611.96875 827.902344 637.566406 856.699219 C 663.164062 885.496094 703.050781 904.40625 749.878906 904.40625 C 796.707031 904.40625 836.597656 885.496094 862.195312 856.699219 C 887.792969 827.902344 899.730469 790.976562 899.730469 754.554688 C 899.730469 734.523438 895.75 714.480469 888.242188 695.582031 C 925.09375 704.320312 958.308594 716.03125 985.339844 730.191406 C 1043.109375 760.453125 1069.996094 797.082031 1069.996094 829.480469 C 1069.996094 861.878906 1043.109375 898.507812 985.339844 928.769531 C 927.566406 959.035156 843.320312 979.332031 749.878906 979.332031 C 656.441406 979.332031 572.191406 959.035156 514.421875 928.769531 C 456.652344 898.507812 429.765625 861.878906 429.765625 829.480469 C 429.765625 797.082031 456.652344 760.453125 514.421875 730.191406 C 541.453125 716.03125 574.667969 704.320312 611.515625 695.582031 Z M 379.425781 908.941406 C 401.695312 943.703125 437.25 972.914062 479.667969 995.136719 C 551.3125 1032.667969 645.835938 1054.253906 749.878906 1054.253906 C 853.925781 1054.253906 948.445312 1032.667969 1020.09375 995.136719 C 1062.507812 972.914062 1098.066406 943.703125 1120.335938 908.941406 C 1141.128906 965.527344 1153.804688 1012.777344 1160.945312 1047.160156 C 1166.207031 1072.558594 1152.414062 1096.40625 1127.796875 1104.523438 C 1058.328125 1127.464844 931.835938 1158.007812 749.878906 1158.007812 C 567.925781 1158.007812 441.433594 1127.464844 371.960938 1104.523438 C 347.40625 1096.417969 333.566406 1072.480469 338.816406 1047.160156 C 345.957031 1012.777344 358.625 965.527344 379.425781 908.941406 Z M 379.425781 908.941406 " fill-opacity="1" fill-rule="nonzero"></path></g></svg>